<svg width="310" height="310" viewBox="0 0 310 310" xmlns="http://www.w3.org/2000/svg">
<path d="M193.006 69.998C199.919 76.756 200.461 86.1645 193.006 94.426L134.927 155L193.006 215.574C200.461 223.835 199.919 233.259 193.006 239.971C186.108 246.729 174.452 246.295 167.973 239.971C161.494 233.678 98.1925 167.198 98.1925 167.198C96.5518 165.615 95.2468 163.718 94.3555 161.62C93.4642 159.521 93.0049 157.264 93.0049 154.984C93.0049 152.705 93.4642 150.448 94.3555 148.349C95.2468 146.251 96.5518 144.354 98.1925 142.771C98.1925 142.771 161.494 76.322 167.973 69.998C174.452 63.6585 186.108 63.24 193.006 69.998Z" fill="#fefefed0"/>
</svg>
